# xmcd
#
# Track frame offsets:
#	150
#	25953
#	45013
#	62104
#	77471
#	95924
#
# Disc length: 1469 seconds
#
# Revision: 6
# Processed by: cddbd v1.5.2PL0 Copyright (c) Steve Scherf et al.
# Submitted via: audiograbber 1.83.01
#
DISCID=3f05bb06
DTITLE=Blake Shelton - Hillbilly Bone
DYEAR=2010
DGENRE=Country
TTITLE0=Hillbilly Bone (ft. Trace Adkins)
TTITLE1=Kiss My Country Ass
TTITLE2=You'll Always Be Beautiful
TTITLE3=Can't Afford To Love You
TTITLE4=Delilah
TTITLE5=Almost Alright
EXTD=YEAR: 2010
EXTT0=
EXTT1=
EXTT2=
EXTT3=
EXTT4=
EXTT5=
PLAYORDER=
